<svg id="Calque_1" data-name="Calque 1" xmlns="http://www.w3.org/2000/svg" viewBox="0 0 1000.02 296"><defs><style>.cls-1{fill:none;}.cls-2{fill:#a6a6a6;}.cls-3{fill:#fff;}</style></defs><rect class="cls-1" x="0.02" width="1000" height="296" rx="52.7"/><path class="cls-2" d="M864.72,352H70.46c-2.71,0-5.39,0-8.09,0-2.26,0-4.51.05-6.79.09a96.82,96.82,0,0,0-14.82,1.31,49,49,0,0,0-14,4.63,47.54,47.54,0,0,0-12,8.71,46.63,46.63,0,0,0-8.71,12,49.15,49.15,0,0,0-4.62,14.07,96.57,96.57,0,0,0-1.32,14.8C0,409.88,0,412.16,0,414.42V585.29c0,2.3,0,4.52.11,6.82a96.57,96.57,0,0,0,1.32,14.8A49.05,49.05,0,0,0,6,621a46,46,0,0,0,8.71,11.94,46.47,46.47,0,0,0,12,8.71,49.42,49.42,0,0,0,14,4.66,98.09,98.09,0,0,0,14.82,1.31c2.28,0,4.53.08,6.79.08,2.7,0,5.38,0,8.09,0H864.72c2.66,0,5.36,0,8,0,2.25,0,4.56,0,6.81-.08a97.7,97.7,0,0,0,14.79-1.31,49.84,49.84,0,0,0,14.1-4.66,46.42,46.42,0,0,0,12-8.71A47.28,47.28,0,0,0,929.13,621a48.77,48.77,0,0,0,4.58-14.07,100.55,100.55,0,0,0,1.37-14.8c0-2.3,0-4.52,0-6.82.06-2.68.06-5.35.06-8.08V422.5c0-2.71,0-5.4-.06-8.08,0-2.26,0-4.54,0-6.8a100.55,100.55,0,0,0-1.37-14.8,48.77,48.77,0,0,0-4.58-14.07,47.78,47.78,0,0,0-20.69-20.7,49.78,49.78,0,0,0-14.1-4.63,95.19,95.19,0,0,0-14.79-1.31c-2.25,0-4.56-.08-6.81-.1Z" transform="translate(0.02 -352)"/><path d="M62.4,641.23c-2.25,0-4.45,0-6.68-.08a94.1,94.1,0,0,1-13.82-1.21,43.29,43.29,0,0,1-12.24-4.05,39.82,39.82,0,0,1-10.33-7.51,39.57,39.57,0,0,1-7.55-10.33,42.25,42.25,0,0,1-4-12.25,91.88,91.88,0,0,1-1.23-13.86c0-1.56-.11-6.75-.11-6.75V414.42s.07-5.11.11-6.61A93,93,0,0,1,7.76,394a42.55,42.55,0,0,1,4-12.28,39.64,39.64,0,0,1,7.51-10.34,41.29,41.29,0,0,1,10.36-7.56,43.21,43.21,0,0,1,12.22-4,93.42,93.42,0,0,1,13.87-1.21l6.67-.09H872.7l6.75.09a91.69,91.69,0,0,1,13.74,1.21,43.76,43.76,0,0,1,12.35,4,41.4,41.4,0,0,1,17.85,17.89,42.58,42.58,0,0,1,4,12.19,94.7,94.7,0,0,1,1.28,13.95c0,2.1,0,4.35,0,6.58.05,2.78.05,5.42.05,8.08V577.21c0,2.68,0,5.3-.05,7.95,0,2.4,0,4.6,0,6.87a93.93,93.93,0,0,1-1.27,13.7,42.32,42.32,0,0,1-4,12.35,40.6,40.6,0,0,1-7.51,10.24,40.06,40.06,0,0,1-10.34,7.56,43.57,43.57,0,0,1-12.33,4.06,92.75,92.75,0,0,1-13.82,1.21c-2.16.05-4.43.08-6.63.08H62.4Z" transform="translate(0.02 -352)"/><g id="_Group_" data-name=" Group "><g id="_Group_2" data-name=" Group 2"><g id="_Group_3" data-name=" Group 3"><path id="_Path_" data-name=" Path " class="cls-3" d="M183.1,502.07a36.59,36.59,0,0,1,17.42-30.69A37.44,37.44,0,0,0,171,455.43c-12.42-1.31-24.45,7.43-30.78,7.43s-16.19-7.3-26.67-7.09A39.31,39.31,0,0,0,80.5,475.94c-14.3,24.75-3.63,61.13,10.06,81.14,6.86,9.79,14.86,20.74,25.34,20.35,10.26-.42,14.09-6.54,26.46-6.54s15.86,6.54,26.55,6.29c11-.18,17.93-9.84,24.55-19.73a80.93,80.93,0,0,0,11.22-22.86A35.34,35.34,0,0,1,183.1,502.07Z" transform="translate(0.02 -352)"/><path id="_Path_2" data-name=" Path 2" class="cls-3" d="M162.91,442.27a36,36,0,0,0,8.24-25.81,36.72,36.72,0,0,0-23.72,12.27A34.3,34.3,0,0,0,139,453.58,30.28,30.28,0,0,0,162.91,442.27Z" transform="translate(0.02 -352)"/></g></g></g><g id="_Group_4" data-name=" Group 4"><path class="cls-3" d="M263.55,460.68V422.81H249.68v-6.24h34.57v6.24H270.41v37.87Z" transform="translate(0.02 -352)"/><path class="cls-3" d="M316.11,451.69a13.51,13.51,0,0,1-14.42,9.63,15.12,15.12,0,0,1-15.52-14.71,15.67,15.67,0,0,1,.14-2.47,15.34,15.34,0,0,1,13.18-17.25,14.3,14.3,0,0,1,2.17-.14c9.26,0,14.85,6.33,14.85,16.78v2.29H293v.37a8.81,8.81,0,0,0,8,9.51q.42,0,.84,0a8,8,0,0,0,7.92-4ZM293,441h16.81a8,8,0,0,0-7.41-8.61c-.26,0-.52,0-.78,0a8.52,8.52,0,0,0-8.62,8.41V441Zm4.71-19.14,7.67-10.52h7.7l-8.59,10.52Z" transform="translate(0.02 -352)"/><path class="cls-3" d="M325.63,414.4h6.57v46.28h-6.57Z" transform="translate(0.02 -352)"/><path class="cls-3" d="M371.13,451.69a13.5,13.5,0,0,1-14.42,9.63,15.11,15.11,0,0,1-15.51-14.71,14.56,14.56,0,0,1,.13-2.47,15.35,15.35,0,0,1,13.18-17.25,14.38,14.38,0,0,1,2.17-.14c9.26,0,14.85,6.33,14.85,16.78v2.29H348v.37a8.81,8.81,0,0,0,8,9.51q.42,0,.84,0a8,8,0,0,0,7.92-4ZM348,441h16.82a8,8,0,0,0-7.42-8.61c-.26,0-.52,0-.78,0a8.52,8.52,0,0,0-8.62,8.41Zm4.71-19.14,7.68-10.52h7.7l-8.59,10.52Z" transform="translate(0.02 -352)"/><path class="cls-3" d="M402.15,438.27a7.45,7.45,0,0,0-7.86-5.65c-5.51,0-8.87,4.22-8.87,11.31s3.39,11.52,8.87,11.52a7.23,7.23,0,0,0,7.86-5.47h6.39a13,13,0,0,1-14.22,11.34,15.28,15.28,0,0,1-15.76-14.79,21,21,0,0,1,13.17-19.65,14.6,14.6,0,0,1,2.56-.13,13.15,13.15,0,0,1,14.25,11.52Z" transform="translate(0.02 -352)"/><path class="cls-3" d="M417.26,414.4h6.51v18.34h.52a10.25,10.25,0,0,1,10.15-6,11,11,0,0,1,11.46,12.41v21.49h-6.58V440.81c0-5.32-2.47-8-7.11-8a7.78,7.78,0,0,0-8.39,7.12,7.28,7.28,0,0,0,0,1.32v19.44h-6.57Z" transform="translate(0.02 -352)"/><path class="cls-3" d="M454.16,451.27c0-6,4.46-9.45,12.38-9.94l9-.52v-2.87c0-3.52-2.33-5.5-6.82-5.5-3.66,0-6.21,1.34-6.93,3.7h-6.36c.67-5.72,6.05-9.39,13.6-9.39,8.34,0,13,4.16,13,11.19v22.74h-6.32V456h-.52a11.17,11.17,0,0,1-10,5.23,10.07,10.07,0,0,1-11.05-9C454.18,451.94,454.16,451.6,454.16,451.27Zm21.4-2.85v-2.78l-8.13.52c-4.58.31-6.66,1.87-6.66,4.8s2.59,4.74,6.17,4.74a7.85,7.85,0,0,0,8.6-7,2.46,2.46,0,0,1,0-.26Z" transform="translate(0.02 -352)"/><path class="cls-3" d="M492.38,427.39h6.33v5.11h.49a9,9,0,0,1,9-5.66,13.82,13.82,0,0,1,2.94.28v6.48a18.17,18.17,0,0,0-3.67-.4,7.81,7.81,0,0,0-8.47,7.07c0,.25,0,.51,0,.76v19.65h-6.57Z" transform="translate(0.02 -352)"/><path class="cls-3" d="M517.16,464h6.72c.56,2.42,3.33,4,7.77,4,5.47,0,8.71-2.6,8.71-7V454.6h-.49a11.18,11.18,0,0,1-10.27,5.59c-8.5,0-13.76-6.57-13.76-16.54,0-10.15,5.32-16.81,13.82-16.81a11.53,11.53,0,0,1,10.45,5.87h.52v-5.32h6.3V461c0,7.61-6,12.44-15.38,12.44C523.24,473.4,517.86,469.67,517.16,464Zm23.32-20.39c0-6.63-3.43-10.88-9-10.88s-8.83,4.25-8.83,10.88,3.18,10.89,8.83,10.89,9-4.22,9-10.89Z" transform="translate(0.02 -352)"/><path class="cls-3" d="M585.54,451.69a13.5,13.5,0,0,1-14.42,9.63,15.11,15.11,0,0,1-15.51-14.71,15.67,15.67,0,0,1,.13-2.47,15.35,15.35,0,0,1,13.18-17.25,14.38,14.38,0,0,1,2.17-.14c9.26,0,14.85,6.33,14.85,16.78v2.29h-23.5v.37a8.8,8.8,0,0,0,8,9.51c.27,0,.55,0,.83,0a8,8,0,0,0,7.92-4ZM562.44,441h16.81a8,8,0,0,0-7.42-8.61c-.26,0-.51,0-.77,0a8.51,8.51,0,0,0-8.62,8.41V441Z" transform="translate(0.02 -352)"/><path class="cls-3" d="M594.76,427.39h6.33v5.11h.49a9,9,0,0,1,9-5.66,13.79,13.79,0,0,1,2.93.28v6.48a18.17,18.17,0,0,0-3.67-.4,7.81,7.81,0,0,0-8.47,7.07c0,.25,0,.51,0,.76v19.65h-6.57Z" transform="translate(0.02 -352)"/><path class="cls-3" d="M637.17,444c0-10.52,5.41-17.18,13.82-17.18a11,11,0,0,1,10.2,5.84h.49V414.4h6.57v46.28H662v-5.26h-.52A11.54,11.54,0,0,1,651,461.23C642.52,461.23,637.17,454.57,637.17,444Zm6.78,0c0,7.06,3.33,11.31,8.9,11.31s9-4.31,9-11.28-3.46-11.31-9-11.31S644,437,644,444Z" transform="translate(0.02 -352)"/><path class="cls-3" d="M677.13,451.27c0-6,4.47-9.45,12.38-9.94l9-.52v-2.87c0-3.52-2.32-5.5-6.81-5.5-3.67,0-6.21,1.34-6.94,3.7h-6.36c.67-5.72,6.05-9.39,13.6-9.39,8.34,0,13.05,4.16,13.05,11.19v22.74h-6.32V456h-.52a11.19,11.19,0,0,1-10,5.23,10.06,10.06,0,0,1-11-9A8.39,8.39,0,0,1,677.13,451.27Zm21.4-2.85v-2.78l-8.13.52c-4.58.31-6.66,1.87-6.66,4.8s2.6,4.74,6.17,4.74a7.85,7.85,0,0,0,8.6-7,2.11,2.11,0,0,0,0-.26Z" transform="translate(0.02 -352)"/><path class="cls-3" d="M715.36,427.39h6.32v5.29h.49a10,10,0,0,1,9.94-5.93,10.83,10.83,0,0,1,11.61,10,10.61,10.61,0,0,1-.09,2.39v21.55h-6.57v-19.9c0-5.35-2.32-8-7.18-8a7.64,7.64,0,0,0-8,7.27,9.15,9.15,0,0,0,0,1.17v19.47h-6.57Z" transform="translate(0.02 -352)"/><path class="cls-3" d="M766,426.75c7.48,0,12.38,3.48,13,9.35h-6.3c-.61-2.44-3-4-6.72-4s-6.46,1.74-6.46,4.34c0,2,1.69,3.24,5.3,4.07l5.53,1.28c6.33,1.47,9.29,4.19,9.29,9.08,0,6.27-5.84,10.45-13.79,10.45s-13.08-3.57-13.66-9.47h6.58A6.74,6.74,0,0,0,766,456c4.09,0,7-1.83,7-4.49,0-2-1.56-3.27-4.9-4.07l-5.8-1.34c-6.33-1.5-9.26-4.34-9.26-9.29C753,430.91,758.44,426.75,766,426.75Z" transform="translate(0.02 -352)"/></g><path class="cls-3" d="M260.18,485.56h13.74v91.8H260.18Z" transform="translate(0.02 -352)"/><path class="cls-3" d="M290.48,519.15,298,485.56h13.35l-9.09,33.59Z" transform="translate(0.02 -352)"/><path class="cls-3" d="M363.29,552.55h-35l-8.41,24.81H305.07l33.14-91.8h15.4l33.15,91.8H371.68ZM331.92,541.1h27.74L346,500.83h-.38Z" transform="translate(0.02 -352)"/><path class="cls-3" d="M458.33,543.9c0,20.8-11.14,34.16-27.93,34.16a22.68,22.68,0,0,1-21.06-11.71H409V599.5H395.28V510.43h13.3v11.13h.25a23.74,23.74,0,0,1,21.31-11.83C447.13,509.73,458.33,523.16,458.33,543.9Zm-14.12,0c0-13.55-7-22.46-17.69-22.46-10.5,0-17.56,9.09-17.56,22.46s7.06,22.52,17.56,22.52C437.2,566.42,444.21,557.57,444.21,543.9Z" transform="translate(0.02 -352)"/><path class="cls-3" d="M532,543.9c0,20.8-11.14,34.16-27.93,34.16A22.68,22.68,0,0,1,483,566.35h-.32V599.5H469V510.43h13.29v11.13h.25a23.74,23.74,0,0,1,21.31-11.83C520.79,509.73,532,523.16,532,543.9Zm-14.12,0c0-13.55-7-22.46-17.69-22.46-10.5,0-17.56,9.09-17.56,22.46s7.06,22.52,17.56,22.52C510.86,566.42,517.87,557.57,517.87,543.9Z" transform="translate(0.02 -352)"/><path class="cls-3" d="M580.67,551.78c1,9.11,9.86,15.08,22,15.08,11.58,0,19.91-6,19.91-14.18,0-7.13-5-11.39-16.92-14.32l-11.9-2.87c-16.86-4.07-24.68-12-24.68-24.74,0-15.84,13.8-26.72,33.4-26.72,19.4,0,32.7,10.88,33.14,26.72H621.71c-.84-9.17-8.41-14.7-19.47-14.7s-18.64,5.6-18.64,13.74c0,6.49,4.83,10.31,16.66,13.23l10.12,2.49C629.21,530,637,537.53,637,551c0,17.17-13.68,27.93-35.44,27.93-20.36,0-34.1-10.5-35-27.11Z" transform="translate(0.02 -352)"/><path class="cls-3" d="M666.7,494.59v15.84h12.72v10.88H666.7v36.9c0,5.73,2.54,8.4,8.14,8.4a42.72,42.72,0,0,0,4.52-.32v10.82a37.56,37.56,0,0,1-7.63.63c-13.55,0-18.84-5.09-18.84-18.07V521.31h-9.73V510.43h9.73V494.59Z" transform="translate(0.02 -352)"/><path class="cls-3" d="M686.79,543.9c0-21.06,12.4-34.29,31.74-34.29s31.75,13.23,31.75,34.29S738,578.19,718.53,578.19,686.79,565,686.79,543.9Zm49.49,0c0-14.45-6.62-23-17.75-23s-17.75,8.6-17.75,23,6.62,23,17.75,23,17.75-8.46,17.75-23Z" transform="translate(0.02 -352)"/><path class="cls-3" d="M761.6,510.43h13.11v11.39H775a16,16,0,0,1,16.1-12.09,20.66,20.66,0,0,1,4.71.51v12.85a19.24,19.24,0,0,0-6.17-.83,13.85,13.85,0,0,0-14.4,13.27,15.12,15.12,0,0,0,.08,2.13v39.7H761.6Z" transform="translate(0.02 -352)"/><path class="cls-3" d="M859.16,557.7c-1.84,12.15-13.68,20.49-28.82,20.49-19.47,0-31.55-13-31.55-34s12.15-34.62,31-34.62c18.51,0,30.16,12.72,30.16,33v4.71H812.66v.83a17.43,17.43,0,0,0,15.82,18.9,19.91,19.91,0,0,0,2.18.06,15.16,15.16,0,0,0,15.46-9.42Zm-46.44-20h33.46a16.08,16.08,0,0,0-15.17-17c-.41,0-.83,0-1.24,0a16.94,16.94,0,0,0-17,16.84Z" transform="translate(0.02 -352)"/></svg>