<?xml version="1.0" encoding="utf-8"?>
<!-- Generator: Adobe Illustrator 25.4.1, SVG Export Plug-In . SVG Version: 6.00 Build 0)  -->
<svg version="1.1" id="Calque_1" xmlns="http://www.w3.org/2000/svg" xmlns:xlink="http://www.w3.org/1999/xlink" x="0px" y="0px"
	 viewBox="0 0 494.6 82.7" style="enable-background:new 0 0 494.6 82.7;" xml:space="preserve">
<style type="text/css">
	.st0{enable-background:new    ;}
	.st1{fill:#F9F9F9;}
</style>
<g class="st0">
	<path class="st1" d="M49.2,47.7h-34L7.8,61.2H1.2l27.7-50.4h6.8l27.7,50.4h-6.8L49.2,47.7z M46.2,42.2l-14-25.9l-14,25.9H46.2z"/>
</g>
<g class="st0">
	<path class="st1" d="M116.8,47.4l5.8,2.9c-4.8,7.6-13.5,12.4-25.9,12.4c-18.8,0-30.3-10.4-30.3-26.7S77.9,9.3,96.9,9.3
		c12.1,0,20.9,4.9,25.6,12.4l-5.8,2.9c-4-6.7-11.2-9.6-19.9-9.6c-14.6,0-24.3,7.2-24.3,21.1s9.6,21.1,24.3,21.1
		C105.6,57.1,112.9,54.2,116.8,47.4z"/>
</g>
<g class="st0">
	<path class="st1" d="M180.5,16.3h-23.8v44.9h-6V16.3h-23.8v-5.5h53.6V16.3z"/>
	<path class="st1" d="M242.6,10.8v26.6c0,14.7-9.2,25.3-26.6,25.3s-26.6-10.6-26.6-25.3V10.8h6v26.3c0,12.4,7.4,20,20.6,20
		c13.1,0,20.5-7.6,20.5-20V10.8H242.6z"/>
</g>
<g class="st0">
	<path class="st1" d="M305.1,61.2l-16.7-19.3h-24v19.3h-6.1V10.8h33.8c11.2,0,19.3,5.6,19.3,15.6c0,8.8-6.3,14.3-15.6,15.3
		l17.2,19.5H305.1z M291.7,36.3c8.1,0,13.5-3.1,13.5-9.9c0-6.8-5.4-9.9-13.5-9.9h-27.4v19.9H291.7z"/>
</g>
<g class="st0">
	<path class="st1" d="M365.5,47.7h-34l-7.3,13.5h-6.7l27.7-50.4h6.8l27.7,50.4h-6.8L365.5,47.7z M362.5,42.2l-14-25.9l-14,25.9
		H362.5z"/>
</g>
<g class="st0">
	<path class="st1" d="M442.2,26.8c0,10.1-7.7,16-19.3,16h-27.7v18.4h-6V10.8h33.7C434.5,10.8,442.2,16.7,442.2,26.8z M436,26.8
		c0-7.1-5.3-10.4-13.5-10.4h-27.2v20.7h27.2C430.6,37.2,436,33.8,436,26.8z"/>
</g>
<g>
	<path class="st1" d="M479.7,29l-9.6-9.6c0-0.2,0-0.5,0.1-0.7s0-0.2,0-0.3l0,0c0-0.1,0-0.2,0.1-0.3l0,0c0-0.1,0-0.2,0.1-0.3l0,0
		l0.1-0.3l0,0c0.1-0.4,0.3-0.9,0.5-1.3c0,0,0,0,0-0.1l0.1-0.2c0,0,0-0.1,0.1-0.1l0.1-0.2l0.1-0.1l0.1-0.2l0.1-0.2
		c0-0.1,0.1-0.1,0.1-0.2l0.1-0.2l0.1-0.1l0.2-0.2l0.1-0.1l0.2-0.2l0.1-0.1l0.3-0.3c0.4-0.4,0.9-0.8,1.4-1.2c0.4-0.2,0.8-0.5,1.2-0.7
		c0.4-0.2,0.8-0.3,1.2-0.5c1.7-0.5,3.5-0.5,5.2,0c0.4,0.1,0.8,0.3,1.2,0.5c0.4,0.2,0.8,0.4,1.2,0.7c0.5,0.3,1,0.7,1.4,1.2
		c3.6,3.6,3.6,9.3,0,12.9c0,0,0,0,0,0c-0.1,0.1-0.2,0.2-0.3,0.3l-0.1,0.1l-0.2,0.2l-0.1,0.1l-0.2,0.1l-0.2,0.1l-0.2,0.1l-0.2,0.1
		l-0.2,0.1l-0.2,0.1l-0.2,0.1l-0.2,0.1l-0.1,0.1l-0.2,0.1H483c-0.4,0.2-0.9,0.4-1.3,0.5l0,0l-0.3,0.1l0,0l-0.3,0.1l0,0l-0.3,0.1l0,0
		l-0.3,0l0,0L479.7,29z M486.5,43.2c-3.3-3.3-8.7-3.4-12.1,0c0,0,0,0,0,0l-13.2,13.2c-2.3,2.3-5.9,2.3-8.2,0c0,0,0,0,0,0l-0.1-0.1
		c-2.2-2.3-2.2-5.9,0-8.2l3.5-3.5l1,1c0.3,0.3,0.6,0.4,1,0.4c0.3,0,0.6-0.1,0.9-0.3L477.8,31l-0.1-0.1l-9.6-9.6l-0.1-0.1l-14.8,18.4
		c-0.4,0.6-0.4,1.4,0.1,1.9l1.2,1.2l-3.5,3.5c-3.3,3.3-3.3,8.7,0,12.1l0.1,0.1c3.3,3.3,8.7,3.3,12.1,0l13.2-13.2
		c2.3-2.3,5.9-2.3,8.2,0c0,0,0,0,0,0l3.7,3.7c0.6,0.6,1.4,0.6,2,0s0.6-1.4,0-2L486.5,43.2z"/>
</g>
</svg>
