<svg id="Calque_1" data-name="Calque 1" xmlns="http://www.w3.org/2000/svg" viewBox="0 0 489.55 53.4"><defs><style>.cls-1{isolation:isolate;}.cls-2{fill:#232323;}</style></defs><g class="cls-1"><path class="cls-2" d="M49.2,47.7h-34L7.8,61.2H1.2L28.9,10.8h6.8L63.4,61.2H56.6Zm-3-5.5-14-25.9-14,25.9Z" transform="translate(-1.2 -9.3)"/></g><g class="cls-1"><path class="cls-2" d="M116.8,47.4l5.8,2.9c-4.8,7.6-13.5,12.4-25.9,12.4C77.9,62.7,66.4,52.3,66.4,36S77.9,9.3,96.9,9.3c12.1,0,20.9,4.9,25.6,12.4l-5.8,2.9c-4-6.7-11.2-9.6-19.9-9.6-14.6,0-24.3,7.2-24.3,21.1s9.6,21.1,24.3,21.1C105.6,57.1,112.9,54.2,116.8,47.4Z" transform="translate(-1.2 -9.3)"/></g><g class="cls-1"><path class="cls-2" d="M180.5,16.3H156.7V61.2h-6V16.3H126.9V10.8h53.6Z" transform="translate(-1.2 -9.3)"/><path class="cls-2" d="M242.6,10.8V37.4c0,14.7-9.2,25.3-26.6,25.3s-26.6-10.6-26.6-25.3V10.8h6V37.1c0,12.4,7.4,20,20.6,20s20.5-7.6,20.5-20V10.8Z" transform="translate(-1.2 -9.3)"/></g><g class="cls-1"><path class="cls-2" d="M305.1,61.2,288.4,41.9h-24V61.2h-6.1V10.8h33.8c11.2,0,19.3,5.6,19.3,15.6,0,8.8-6.3,14.3-15.6,15.3L313,61.2ZM291.7,36.3c8.1,0,13.5-3.1,13.5-9.9s-5.4-9.9-13.5-9.9H264.3V36.4h27.4Z" transform="translate(-1.2 -9.3)"/></g><g class="cls-1"><path class="cls-2" d="M365.5,47.7h-34l-7.3,13.5h-6.7l27.7-50.4H352l27.7,50.4h-6.8Zm-3-5.5-14-25.9-14,25.9Z" transform="translate(-1.2 -9.3)"/></g><g class="cls-1"><path class="cls-2" d="M442.2,26.8c0,10.1-7.7,16-19.3,16H395.2V61.2h-6V10.8h33.7C434.5,10.8,442.2,16.7,442.2,26.8Zm-6.2,0c0-7.1-5.3-10.4-13.5-10.4H395.3V37.1h27.2C430.6,37.2,436,33.8,436,26.8Z" transform="translate(-1.2 -9.3)"/></g><path class="cls-2" d="M479.7,29l-9.6-9.6a1.7,1.7,0,0,1,.1-.7c.1-.2,0-.2,0-.3h0a.37.37,0,0,1,.1-.3h0a.37.37,0,0,1,.1-.3h0l.1-.3h0a6.94,6.94,0,0,1,.5-1.3v-.1l.1-.2a.1.1,0,0,1,.1-.1l.1-.2.1-.1.1-.2.1-.2c0-.1.1-.1.1-.2l.1-.2.1-.1.2-.2.1-.1.2-.2.1-.1.3-.3a17.41,17.41,0,0,1,1.4-1.2c.4-.2.8-.5,1.2-.7s.8-.3,1.2-.5a9.2,9.2,0,0,1,5.2,0,6.12,6.12,0,0,1,1.2.5,7.46,7.46,0,0,1,1.2.7,5.26,5.26,0,0,1,1.4,1.2,9.05,9.05,0,0,1,0,12.9h0l-.3.3-.1.1-.2.2-.1.1-.2.1-.2.1-.2.1-.2.1-.2.1-.2.1-.2.1-.2.1-.1.1-.2.1h0a6.94,6.94,0,0,1-1.3.5h0l-.3.1h0l-.3.1h0l-.3.1h-.3Zm6.8,14.2a8.54,8.54,0,0,0-12.1,0h0L461.2,56.4a5.73,5.73,0,0,1-8.2,0h0l-.1-.1a5.92,5.92,0,0,1,0-8.2l3.5-3.5,1,1a1.28,1.28,0,0,0,1,.4,1.61,1.61,0,0,0,.9-.3L477.8,31l-.1-.1-9.6-9.6-.1-.1L453.2,39.6a1.5,1.5,0,0,0,.1,1.9l1.2,1.2L451,46.2a8.63,8.63,0,0,0,0,12.1l.1.1a8.63,8.63,0,0,0,12.1,0l13.2-13.2a5.73,5.73,0,0,1,8.2,0h0l3.7,3.7a1.41,1.41,0,0,0,2-2Z" transform="translate(-1.2 -9.3)"/></svg>