<svg id="Calque_1" data-name="Calque 1" xmlns="http://www.w3.org/2000/svg" xmlns:xlink="http://www.w3.org/1999/xlink" viewBox="0 0 1000 296.3"><defs><style>.cls-1{fill:#a6a6a6;}.cls-2,.cls-9{fill:#fff;}.cls-3{fill:url(#Dégradé_sans_nom_5);}.cls-4{fill:url(#Dégradé_sans_nom_2);}.cls-5{fill:url(#Dégradé_sans_nom_3);}.cls-6{fill:url(#Dégradé_sans_nom_4);}.cls-7,.cls-8,.cls-9{isolation:isolate;}.cls-7{opacity:0.2;}.cls-8{opacity:0.12;}.cls-9{opacity:0.25;}</style><linearGradient id="Dégradé_sans_nom_5" x1="254.32" y1="-3425.06" x2="58.09" y2="-3228.83" gradientTransform="translate(0.37 2586.19) scale(0.63)" gradientUnits="userSpaceOnUse"><stop offset="0" stop-color="#00a0ff"/><stop offset="0.01" stop-color="#00a1ff"/><stop offset="0.26" stop-color="#00beff"/><stop offset="0.51" stop-color="#00d2ff"/><stop offset="0.76" stop-color="#00dfff"/><stop offset="1" stop-color="#00e3ff"/></linearGradient><linearGradient id="Dégradé_sans_nom_2" x1="395.04" y1="-3293.03" x2="112.11" y2="-3293.03" gradientTransform="translate(0.37 2586.19) scale(0.63)" gradientUnits="userSpaceOnUse"><stop offset="0" stop-color="#ffe000"/><stop offset="0.41" stop-color="#ffbd00"/><stop offset="0.78" stop-color="orange"/><stop offset="1" stop-color="#ff9c00"/></linearGradient><linearGradient id="Dégradé_sans_nom_3" x1="289.71" y1="-3266.2" x2="23.61" y2="-3000.1" gradientTransform="translate(0.37 2586.19) scale(0.63)" gradientUnits="userSpaceOnUse"><stop offset="0" stop-color="#ff3a44"/><stop offset="1" stop-color="#c31162"/></linearGradient><linearGradient id="Dégradé_sans_nom_4" x1="84.74" y1="-3524.84" x2="203.57" y2="-3406.01" gradientTransform="translate(0.37 2586.19) scale(0.63)" gradientUnits="userSpaceOnUse"><stop offset="0" stop-color="#32a071"/><stop offset="0.07" stop-color="#2da771"/><stop offset="0.48" stop-color="#15cf74"/><stop offset="0.8" stop-color="#06e775"/><stop offset="1" stop-color="#00f076"/></linearGradient></defs><path d="M963,648.15H37a37.15,37.15,0,0,1-37-37V388.89a37.15,37.15,0,0,1,37-37H963a37.15,37.15,0,0,1,37,37V611.11A37.14,37.14,0,0,1,963,648.15Z" transform="translate(0 -351.85)"/><path class="cls-1" d="M963,357.78a31.14,31.14,0,0,1,31.11,31.11V611.11A31.14,31.14,0,0,1,963,642.22H37A31.14,31.14,0,0,1,5.92,611.11V388.89A31.14,31.14,0,0,1,37,357.78H963m0-5.93H37a37.15,37.15,0,0,0-37,37V611.11a37.15,37.15,0,0,0,37,37H963a37.15,37.15,0,0,0,37-37V388.89a37.14,37.14,0,0,0-37-37Z" transform="translate(0 -351.85)"/><path class="cls-2" d="M504.72,513c-17.43,0-31.62,13.24-31.62,31.5S487.29,576,504.72,576s31.62-13.37,31.62-31.51S522.13,513,504.72,513Zm0,50.6c-9.55,0-17.78-7.88-17.78-19.1s8.23-19.09,17.78-19.09,17.78,7.76,17.78,19.09S514.26,563.58,504.72,563.58Zm-69-50.6c-17.43,0-31.62,13.24-31.62,31.5S418.3,576,435.73,576s31.62-13.37,31.62-31.51S453.15,513,435.73,513Zm0,50.6c-9.55,0-17.78-7.88-17.78-19.1s8.24-19.09,17.78-19.09,17.78,7.76,17.78,19.09S445.27,563.58,435.73,563.58Zm-82.07-40.94V536h32c-1,7.51-3.47,13-7.28,16.82-4.66,4.66-11.93,9.79-24.7,9.79-19.69,0-35.09-15.87-35.09-35.57s15.4-35.56,35.09-35.56a34.05,34.05,0,0,1,24.1,9.54l9.43-9.43a46.61,46.61,0,0,0-33.53-13.49c-27,0-49.65,22-49.65,48.93S326.7,576,353.67,576c14.56,0,25.53-4.77,34.13-13.72,8.83-8.84,11.57-21.25,11.57-31.27a43.3,43.3,0,0,0-.72-8.35h-45ZM689.28,533c-2.62-7-10.62-20-27-20s-29.71,12.77-29.71,31.51C632.6,562.15,646,576,663.86,576a31.39,31.39,0,0,0,26.26-14l-10.74-7.16c-3.59,5.25-8.48,8.7-15.52,8.7s-12.05-3.22-15.27-9.54l42.12-17.42Zm-43,10.5c-.35-12.17,9.43-18.37,16.47-18.37,5.49,0,10.15,2.74,11.69,6.68Zm-34.25,30.55h13.85V481.47H612.06ZM589.39,520h-.48c-3.1-3.69-9.07-7-16.59-7-15.75,0-30.19,13.85-30.19,31.63S556.57,576,572.32,576c7.52,0,13.49-3.35,16.59-7.17h.48v4.54c0,12-6.44,18.49-16.83,18.49-8.47,0-13.72-6.08-15.87-11.22l-12.05,5a30,30,0,0,0,27.92,18.62c16.23,0,30-9.54,30-32.82V514.88H589.38V520Zm-15.87,43.56c-9.54,0-17.54-8-17.54-19s8-19.21,17.54-19.21,16.83,8.11,16.83,19.21S583,563.58,573.52,563.58Zm180.61-82.11H721v92.61h13.82V539h19.31c15.32,0,30.37-11.09,30.37-28.76S769.45,481.47,754.13,481.47Zm.35,44.64H734.82V494.36h19.66a15.88,15.88,0,1,1,0,31.75Zm85.42-13.3c-10,0-20.37,4.4-24.66,14.17l12.28,5.12c2.62-5.12,7.5-6.79,12.62-6.79,7.15,0,14.42,4.29,14.54,11.92v.95a30.55,30.55,0,0,0-14.41-3.57c-13.23,0-26.69,7.27-26.69,20.85,0,12.38,10.84,20.37,23,20.37,9.3,0,14.42-4.17,17.63-9.06h.48v7.15H868V538.41C868,522,855.74,512.81,839.9,512.81Zm-1.67,50.75c-4.52,0-10.84-2.27-10.84-7.86,0-7.15,7.87-9.9,14.66-9.9a24.56,24.56,0,0,1,12.62,3.11A16.76,16.76,0,0,1,838.23,563.56Zm78.4-48.73L900.78,555h-.48l-16.44-40.15H869L893.63,571l-14.06,31.21H894l38-87.33Zm-124.5,59.25H806V481.47H792.13Z" transform="translate(0 -351.85)"/><path class="cls-3" d="M77.3,407.69c-2.16,2.28-3.42,5.82-3.42,10.41V581.92c0,4.59,1.27,8.13,3.42,10.41l.55.53,91.77-91.77v-2.16L77.84,407.15Z" transform="translate(0 -351.85)"/><path class="cls-4" d="M200.21,531.69l-30.59-30.6v-2.16l30.6-30.6.68.4,36.25,20.59c10.36,5.89,10.36,15.51,0,21.39L200.9,531.3Z" transform="translate(0 -351.85)"/><path class="cls-5" d="M200.9,531.3,169.62,500,77.3,592.33c3.41,3.61,9,4.06,15.4.45L200.9,531.3" transform="translate(0 -351.85)"/><path class="cls-6" d="M200.9,468.72,92.69,407.24c-6.35-3.61-12-3.16-15.4.45L169.62,500Z" transform="translate(0 -351.85)"/><path class="cls-7" d="M200.22,530.61,92.69,591.7c-6,3.42-11.39,3.19-14.84.08h0l-.55.55h0l.55.53h0c3.45,3.11,8.83,3.34,14.84-.08L200.9,531.3Z" transform="translate(0 -351.85)"/><path class="cls-8" d="M77.3,591.25c-2.16-2.29-3.42-5.83-3.42-10.41v1.08c0,4.59,1.27,8.13,3.42,10.41l.55-.55Z" transform="translate(0 -351.85)"/><path class="cls-8" d="M237.14,509.62l-36.92,21,.68.69,36.25-20.6c5.17-2.94,7.77-6.81,7.77-10.69h0C244.47,503.52,241.85,507,237.14,509.62Z" transform="translate(0 -351.85)"/><path class="cls-9" d="M92.69,408.32,237.14,490.4c4.7,2.66,7.33,6.1,7.77,9.61h0c0-3.88-2.59-7.76-7.77-10.7L92.69,407.24c-10.35-5.89-18.82-1-18.82,10.86v1.09C73.87,407.32,82.34,402.44,92.69,408.32Z" transform="translate(0 -351.85)"/><path class="cls-2" d="M319.36,448.89H305V403h14.34c7,0,12.69,2.15,16.91,6.4s6.36,9.81,6.36,16.56-2.15,12.33-6.36,16.57S326.36,448.89,319.36,448.89ZM312.22,442h7.14c4.91,0,8.84-1.41,11.68-4.2s4.28-6.76,4.28-11.83-1.44-9-4.28-11.79-6.77-4.22-11.68-4.22h-7.14v32Z" transform="translate(0 -351.85)"/><path class="cls-2" d="M356.36,448.89h-7.19V403h7.19Z" transform="translate(0 -351.85)"/><path class="cls-2" d="M378.33,449.88a17.41,17.41,0,0,1-9.88-3.29,15.46,15.46,0,0,1-6.36-9.32l-.15-.61,6.6-2.67.21.82a11.29,11.29,0,0,0,3.58,5.8,8.85,8.85,0,0,0,6,2.33,9.75,9.75,0,0,0,5.92-1.81,5.5,5.5,0,0,0,2.34-4.71,6.05,6.05,0,0,0-2.34-5.15,26.83,26.83,0,0,0-8.12-3.65,23,23,0,0,1-9.24-5,10.81,10.81,0,0,1-3.27-8.07,11.82,11.82,0,0,1,4-8.86A14.67,14.67,0,0,1,378,402a15.07,15.07,0,0,1,9.65,3,13.89,13.89,0,0,1,4.84,6.53l.2.64-6.61,2.76-.23-.82a7,7,0,0,0-2.52-3.53,9,9,0,0,0-10.36,0,4.83,4.83,0,0,0-2.05,4,4.46,4.46,0,0,0,1.86,3.62,19.92,19.92,0,0,0,6.07,2.94,55.76,55.76,0,0,1,5.57,2.08,25.91,25.91,0,0,1,4.59,2.72,11.27,11.27,0,0,1,3.65,4.38,14,14,0,0,1,1.22,6,13,13,0,0,1-1.42,6.12,11.56,11.56,0,0,1-3.78,4.31,18.71,18.71,0,0,1-4.94,2.36A18.51,18.51,0,0,1,378.33,449.88Z" transform="translate(0 -351.85)"/><path class="cls-2" d="M407.81,448.89h-7.19V403h15.89a14.81,14.81,0,0,1,10.27,4,13.66,13.66,0,0,1,0,20,14.81,14.81,0,0,1-10.27,3.95h-8.7Zm0-24.95h8.82a6.59,6.59,0,0,0,5.22-2.17,6.91,6.91,0,0,0,0-9.68,6.62,6.62,0,0,0-5.22-2.18h-8.82Z" transform="translate(0 -351.85)"/><path class="cls-2" d="M457.66,449.88a22.6,22.6,0,0,1-16.82-7,24.76,24.76,0,0,1,0-34,23.73,23.73,0,0,1,33.62,0,24.68,24.68,0,0,1,0,34h0A22.6,22.6,0,0,1,457.66,449.88Zm-11.55-11.72a16.34,16.34,0,0,0,23.1,0,18.2,18.2,0,0,0,0-24.46,16.34,16.34,0,0,0-23.1,0,18.23,18.23,0,0,0,0,24.46Z" transform="translate(0 -351.85)"/><path class="cls-2" d="M523.52,448.89H516.4l-.21-.35-21.41-34.33.18,6.24v28.44h-7.19V403h8.1l20.63,33-.17-6.25V403h7.19Z" transform="translate(0 -351.85)"/><path class="cls-2" d="M539.41,448.89h-7.19V403h7.19Z" transform="translate(0 -351.85)"/><path class="cls-2" d="M565.79,448.89H548.11V403h16.81a13.86,13.86,0,0,1,9.54,3.64,11.94,11.94,0,0,1,4.06,9.21,10.51,10.51,0,0,1-1.77,6,10.94,10.94,0,0,1-3.5,3.3,12,12,0,0,1,4.49,3.59,10.85,10.85,0,0,1,2.27,6.78,12.39,12.39,0,0,1-4.25,9.61A14.49,14.49,0,0,1,565.79,448.89ZM555.29,442H566a6.11,6.11,0,0,0,4.79-2.05,6.64,6.64,0,0,0,1.86-4.54,6.75,6.75,0,0,0-6.9-6.52h-10.5Zm0-19.93h9.63a5.88,5.88,0,0,0,4.64-1.91,5.89,5.89,0,0,0,.06-8.34,5.65,5.65,0,0,0-4.44-1.86h-9.89Z" transform="translate(0 -351.85)"/><path class="cls-2" d="M612.65,448.89H586.23V403h7.18v39h19.24v6.94Z" transform="translate(0 -351.85)"/><path class="cls-2" d="M645.8,448.89H618.38V403H645.8v7H625.57v12.6h18.25v6.82H625.57v12.61H645.8Z" transform="translate(0 -351.85)"/><path class="cls-2" d="M679.58,449.88a17.44,17.44,0,0,1-9.89-3.29,15.49,15.49,0,0,1-6.35-9.32l-.16-.61,6.6-2.67.21.82a11.16,11.16,0,0,0,3.58,5.8,8.85,8.85,0,0,0,6,2.33,9.75,9.75,0,0,0,5.92-1.81,5.5,5.5,0,0,0,2.34-4.71,6,6,0,0,0-2.35-5.15,26.6,26.6,0,0,0-8.12-3.65,23.16,23.16,0,0,1-9.24-5,10.82,10.82,0,0,1-3.27-8.08,11.81,11.81,0,0,1,4-8.85A14.63,14.63,0,0,1,679.24,402a15.09,15.09,0,0,1,9.65,3,13.92,13.92,0,0,1,4.85,6.53l.2.65-6.62,2.75-.22-.82a6.92,6.92,0,0,0-2.52-3.53,8,8,0,0,0-5.21-1.63,8.11,8.11,0,0,0-5.16,1.67,4.83,4.83,0,0,0-2.05,4,4.47,4.47,0,0,0,1.86,3.61,19.92,19.92,0,0,0,6.07,2.94,53.94,53.94,0,0,1,5.57,2.08,26.33,26.33,0,0,1,4.6,2.72,11.35,11.35,0,0,1,3.65,4.38,14.07,14.07,0,0,1,1.21,6,13,13,0,0,1-1.41,6.11,11.58,11.58,0,0,1-3.79,4.31,18.26,18.26,0,0,1-4.94,2.36A17.85,17.85,0,0,1,679.58,449.88Z" transform="translate(0 -351.85)"/><path class="cls-2" d="M718.06,449.88a16.4,16.4,0,0,1-12.43-5.07c-3.16-3.36-4.76-7.79-4.76-13.17V403h7.19v28.92a12.08,12.08,0,0,0,2.59,8.06c1.71,2,4.13,3,7.42,3s5.72-1,7.4-3a12.08,12.08,0,0,0,2.59-8.06V403h7.2v28.68c0,5.42-1.56,9.86-4.64,13.19S723.31,449.88,718.06,449.88Z" transform="translate(0 -351.85)"/><path class="cls-2" d="M775.22,448.89h-7.89l-.22-.33-11.77-17.67h-5.2v18H743V403h15.89a14.81,14.81,0,0,1,10.27,4,13,13,0,0,1,4.36,10,13.13,13.13,0,0,1-3.21,8.71,14.06,14.06,0,0,1-7.12,4.54l12.07,17.5v1.21Zm-25.08-24.82h8.46A7.58,7.58,0,0,0,764,422a6.48,6.48,0,0,0,2.21-5.09,7,7,0,0,0-2-4.84,6.61,6.61,0,0,0-5.22-2.18h-8.82v14.16Z" transform="translate(0 -351.85)"/></svg>